<mxfile host="app.diagrams.net" modified="2021-05-28T15:27:17.156Z" agent="5.0 (Windows NT 10.0; Win64; x64) AppleWebKit/537.36 (KHTML, like Gecko) Chrome/90.0.4430.212 Safari/537.36" etag="hTKFpegX2AkOGyReYh6u" version="14.7.2" type="github">
  <diagram id="aOPsix0wSyWG0z5QaHGM" name="Page-1">
    <mxGraphModel dx="1038" dy="580" grid="1" gridSize="10" guides="1" tooltips="1" connect="1" arrows="1" fold="1" page="1" pageScale="1" pageWidth="1169" pageHeight="827" math="0" shadow="0">
      <root>
        <mxCell id="0" />
        <mxCell id="1" parent="0" />
        <mxCell id="XtGq3PdnK-xUfK9ltnUs-4" value="index" style="rounded=0;whiteSpace=wrap;html=1;" vertex="1" parent="1">
          <mxGeometry x="450" y="70" width="120" height="60" as="geometry" />
        </mxCell>
        <mxCell id="XtGq3PdnK-xUfK9ltnUs-9" value="" style="edgeStyle=orthogonalEdgeStyle;rounded=0;orthogonalLoop=1;jettySize=auto;html=1;" edge="1" parent="1" source="XtGq3PdnK-xUfK9ltnUs-5" target="XtGq3PdnK-xUfK9ltnUs-8">
          <mxGeometry relative="1" as="geometry" />
        </mxCell>
        <mxCell id="XtGq3PdnK-xUfK9ltnUs-11" value="" style="edgeStyle=orthogonalEdgeStyle;rounded=0;orthogonalLoop=1;jettySize=auto;html=1;" edge="1" parent="1" source="XtGq3PdnK-xUfK9ltnUs-5" target="XtGq3PdnK-xUfK9ltnUs-10">
          <mxGeometry relative="1" as="geometry" />
        </mxCell>
        <mxCell id="XtGq3PdnK-xUfK9ltnUs-5" value="sever" style="rounded=0;whiteSpace=wrap;html=1;" vertex="1" parent="1">
          <mxGeometry x="470" y="260" width="120" height="60" as="geometry" />
        </mxCell>
        <mxCell id="XtGq3PdnK-xUfK9ltnUs-8" value="error500" style="rounded=0;whiteSpace=wrap;html=1;" vertex="1" parent="1">
          <mxGeometry x="270" y="260" width="120" height="60" as="geometry" />
        </mxCell>
        <mxCell id="XtGq3PdnK-xUfK9ltnUs-13" value="" style="edgeStyle=orthogonalEdgeStyle;rounded=0;orthogonalLoop=1;jettySize=auto;html=1;" edge="1" parent="1" source="XtGq3PdnK-xUfK9ltnUs-10" target="XtGq3PdnK-xUfK9ltnUs-12">
          <mxGeometry relative="1" as="geometry" />
        </mxCell>
        <mxCell id="XtGq3PdnK-xUfK9ltnUs-10" value="&lt;div style=&quot;color: rgb(212 , 212 , 212) ; background-color: rgb(30 , 30 , 30) ; font-family: &amp;#34;consolas&amp;#34; , &amp;#34;courier new&amp;#34; , monospace ; font-size: 14px ; line-height: 19px&quot;&gt;&lt;span style=&quot;color: #ce9178&quot;&gt;/api/v1/food&lt;/span&gt;&lt;/div&gt;" style="rounded=0;whiteSpace=wrap;html=1;" vertex="1" parent="1">
          <mxGeometry x="730" y="290" width="120" height="60" as="geometry" />
        </mxCell>
        <mxCell id="XtGq3PdnK-xUfK9ltnUs-22" value="" style="edgeStyle=orthogonalEdgeStyle;rounded=0;orthogonalLoop=1;jettySize=auto;html=1;exitX=0.75;exitY=1;exitDx=0;exitDy=0;" edge="1" parent="1" source="XtGq3PdnK-xUfK9ltnUs-12" target="XtGq3PdnK-xUfK9ltnUs-21">
          <mxGeometry relative="1" as="geometry" />
        </mxCell>
        <mxCell id="XtGq3PdnK-xUfK9ltnUs-12" value="router" style="whiteSpace=wrap;html=1;rounded=0;" vertex="1" parent="1">
          <mxGeometry x="940" y="240" width="120" height="60" as="geometry" />
        </mxCell>
        <mxCell id="XtGq3PdnK-xUfK9ltnUs-16" value="error404" style="rounded=0;whiteSpace=wrap;html=1;" vertex="1" parent="1">
          <mxGeometry x="270" y="180" width="120" height="60" as="geometry" />
        </mxCell>
        <mxCell id="XtGq3PdnK-xUfK9ltnUs-17" value="" style="endArrow=classic;html=1;exitX=0.5;exitY=0;exitDx=0;exitDy=0;" edge="1" parent="1" source="XtGq3PdnK-xUfK9ltnUs-5">
          <mxGeometry width="50" height="50" relative="1" as="geometry">
            <mxPoint x="500" y="310" as="sourcePoint" />
            <mxPoint x="390" y="200" as="targetPoint" />
            <Array as="points">
              <mxPoint x="530" y="200" />
            </Array>
          </mxGeometry>
        </mxCell>
        <mxCell id="XtGq3PdnK-xUfK9ltnUs-18" value="&lt;div style=&quot;color: rgb(212 , 212 , 212) ; background-color: rgb(30 , 30 , 30) ; font-family: &amp;#34;consolas&amp;#34; , &amp;#34;courier new&amp;#34; , monospace ; font-size: 14px ; line-height: 19px&quot;&gt;&lt;span style=&quot;color: #ce9178&quot;&gt;/api/v1/clothes&lt;/span&gt;&lt;/div&gt;" style="rounded=0;whiteSpace=wrap;html=1;" vertex="1" parent="1">
          <mxGeometry x="730" y="180" width="120" height="60" as="geometry" />
        </mxCell>
        <mxCell id="XtGq3PdnK-xUfK9ltnUs-19" value="" style="edgeStyle=orthogonalEdgeStyle;rounded=0;orthogonalLoop=1;jettySize=auto;html=1;exitX=1;exitY=0.25;exitDx=0;exitDy=0;entryX=0;entryY=0.5;entryDx=0;entryDy=0;" edge="1" parent="1" source="XtGq3PdnK-xUfK9ltnUs-5" target="XtGq3PdnK-xUfK9ltnUs-18">
          <mxGeometry relative="1" as="geometry">
            <mxPoint x="600" y="270" as="sourcePoint" />
            <mxPoint x="740" y="330" as="targetPoint" />
          </mxGeometry>
        </mxCell>
        <mxCell id="XtGq3PdnK-xUfK9ltnUs-20" value="" style="edgeStyle=orthogonalEdgeStyle;rounded=0;orthogonalLoop=1;jettySize=auto;html=1;entryX=0;entryY=0.25;entryDx=0;entryDy=0;exitX=1;exitY=0.5;exitDx=0;exitDy=0;" edge="1" parent="1" source="XtGq3PdnK-xUfK9ltnUs-18" target="XtGq3PdnK-xUfK9ltnUs-12">
          <mxGeometry relative="1" as="geometry">
            <mxPoint x="860" y="330" as="sourcePoint" />
            <mxPoint x="950" y="280" as="targetPoint" />
          </mxGeometry>
        </mxCell>
        <mxCell id="XtGq3PdnK-xUfK9ltnUs-21" value="clothes.js" style="whiteSpace=wrap;html=1;rounded=0;" vertex="1" parent="1">
          <mxGeometry x="1040" y="510" width="120" height="60" as="geometry" />
        </mxCell>
        <mxCell id="XtGq3PdnK-xUfK9ltnUs-23" value="" style="edgeStyle=orthogonalEdgeStyle;rounded=0;orthogonalLoop=1;jettySize=auto;html=1;exitX=0.5;exitY=1;exitDx=0;exitDy=0;" edge="1" parent="1" target="XtGq3PdnK-xUfK9ltnUs-24" source="XtGq3PdnK-xUfK9ltnUs-12">
          <mxGeometry relative="1" as="geometry">
            <mxPoint x="850" y="300" as="sourcePoint" />
          </mxGeometry>
        </mxCell>
        <mxCell id="XtGq3PdnK-xUfK9ltnUs-24" value="food.js" style="whiteSpace=wrap;html=1;rounded=0;" vertex="1" parent="1">
          <mxGeometry x="250" y="490" width="120" height="60" as="geometry" />
        </mxCell>
        <mxCell id="XtGq3PdnK-xUfK9ltnUs-25" value="get /&lt;br&gt;all food" style="ellipse;whiteSpace=wrap;html=1;" vertex="1" parent="1">
          <mxGeometry x="160" y="620" width="70" height="50" as="geometry" />
        </mxCell>
        <mxCell id="XtGq3PdnK-xUfK9ltnUs-26" value="post /:id&lt;br&gt;food withid" style="ellipse;whiteSpace=wrap;html=1;" vertex="1" parent="1">
          <mxGeometry x="240" y="620" width="70" height="50" as="geometry" />
        </mxCell>
        <mxCell id="XtGq3PdnK-xUfK9ltnUs-27" value="post /&amp;nbsp;&lt;br&gt;create" style="ellipse;whiteSpace=wrap;html=1;" vertex="1" parent="1">
          <mxGeometry x="320" y="620" width="70" height="50" as="geometry" />
        </mxCell>
        <mxCell id="XtGq3PdnK-xUfK9ltnUs-28" value="put / :id&lt;br&gt;update" style="ellipse;whiteSpace=wrap;html=1;" vertex="1" parent="1">
          <mxGeometry x="400" y="620" width="70" height="50" as="geometry" />
        </mxCell>
        <mxCell id="XtGq3PdnK-xUfK9ltnUs-29" value="delete / :id&lt;br&gt;delete" style="ellipse;whiteSpace=wrap;html=1;" vertex="1" parent="1">
          <mxGeometry x="480" y="620" width="70" height="50" as="geometry" />
        </mxCell>
        <mxCell id="XtGq3PdnK-xUfK9ltnUs-30" value="&#xa;&#xa;&lt;span style=&quot;color: rgb(0, 0, 0); font-family: helvetica; font-size: 12px; font-style: normal; font-weight: 400; letter-spacing: normal; text-align: center; text-indent: 0px; text-transform: none; word-spacing: 0px; background-color: rgb(248, 249, 250); display: inline; float: none;&quot;&gt;delete / :id&lt;/span&gt;&lt;br style=&quot;color: rgb(0, 0, 0); font-family: helvetica; font-size: 12px; font-style: normal; font-weight: 400; letter-spacing: normal; text-align: center; text-indent: 0px; text-transform: none; word-spacing: 0px; background-color: rgb(248, 249, 250);&quot;&gt;&lt;span style=&quot;color: rgb(0, 0, 0); font-family: helvetica; font-size: 12px; font-style: normal; font-weight: 400; letter-spacing: normal; text-align: center; text-indent: 0px; text-transform: none; word-spacing: 0px; background-color: rgb(248, 249, 250); display: inline; float: none;&quot;&gt;delete&lt;/span&gt;&#xa;&#xa;" style="ellipse;whiteSpace=wrap;html=1;" vertex="1" parent="1">
          <mxGeometry x="1099" y="640" width="70" height="50" as="geometry" />
        </mxCell>
        <mxCell id="XtGq3PdnK-xUfK9ltnUs-31" value="&lt;span&gt;put / :id&lt;/span&gt;&lt;br&gt;&lt;span&gt;update&lt;/span&gt;" style="ellipse;whiteSpace=wrap;html=1;" vertex="1" parent="1">
          <mxGeometry x="1020" y="640" width="70" height="50" as="geometry" />
        </mxCell>
        <mxCell id="XtGq3PdnK-xUfK9ltnUs-33" value="&lt;span style=&quot;color: rgb(0 , 0 , 0) ; font-family: &amp;#34;helvetica&amp;#34; ; font-size: 12px ; font-style: normal ; font-weight: 400 ; letter-spacing: normal ; text-align: center ; text-indent: 0px ; text-transform: none ; word-spacing: 0px ; background-color: rgb(248 , 249 , 250) ; display: inline ; float: none&quot;&gt;get /&lt;/span&gt;&lt;br style=&quot;color: rgb(0 , 0 , 0) ; font-family: &amp;#34;helvetica&amp;#34; ; font-size: 12px ; font-style: normal ; font-weight: 400 ; letter-spacing: normal ; text-align: center ; text-indent: 0px ; text-transform: none ; word-spacing: 0px ; background-color: rgb(248 , 249 , 250)&quot;&gt;&lt;span style=&quot;color: rgb(0 , 0 , 0) ; font-family: &amp;#34;helvetica&amp;#34; ; font-size: 12px ; font-style: normal ; font-weight: 400 ; letter-spacing: normal ; text-align: center ; text-indent: 0px ; text-transform: none ; word-spacing: 0px ; background-color: rgb(248 , 249 , 250) ; display: inline ; float: none&quot;&gt;all clothes&lt;/span&gt;" style="ellipse;whiteSpace=wrap;html=1;" vertex="1" parent="1">
          <mxGeometry x="780" y="640" width="70" height="50" as="geometry" />
        </mxCell>
        <mxCell id="XtGq3PdnK-xUfK9ltnUs-34" value="&lt;br&gt;&lt;span style=&quot;color: rgb(0 , 0 , 0) ; font-family: &amp;#34;helvetica&amp;#34; ; font-size: 12px ; font-style: normal ; font-weight: 400 ; letter-spacing: normal ; text-align: center ; text-indent: 0px ; text-transform: none ; word-spacing: 0px ; background-color: rgb(248 , 249 , 250) ; display: inline ; float: none&quot;&gt;post /:id&lt;/span&gt;&lt;br style=&quot;color: rgb(0 , 0 , 0) ; font-family: &amp;#34;helvetica&amp;#34; ; font-size: 12px ; font-style: normal ; font-weight: 400 ; letter-spacing: normal ; text-align: center ; text-indent: 0px ; text-transform: none ; word-spacing: 0px ; background-color: rgb(248 , 249 , 250)&quot;&gt;&lt;span style=&quot;color: rgb(0 , 0 , 0) ; font-family: &amp;#34;helvetica&amp;#34; ; font-size: 12px ; font-style: normal ; font-weight: 400 ; letter-spacing: normal ; text-align: center ; text-indent: 0px ; text-transform: none ; word-spacing: 0px ; background-color: rgb(248 , 249 , 250) ; display: inline ; float: none&quot;&gt;clothes withid&lt;/span&gt;" style="ellipse;whiteSpace=wrap;html=1;" vertex="1" parent="1">
          <mxGeometry x="860" y="640" width="70" height="50" as="geometry" />
        </mxCell>
        <mxCell id="XtGq3PdnK-xUfK9ltnUs-35" value="&#xa;&#xa;&lt;span style=&quot;color: rgb(0, 0, 0); font-family: helvetica; font-size: 12px; font-style: normal; font-weight: 400; letter-spacing: normal; text-align: center; text-indent: 0px; text-transform: none; word-spacing: 0px; background-color: rgb(248, 249, 250); display: inline; float: none;&quot;&gt;post /&amp;nbsp;&lt;/span&gt;&lt;br style=&quot;color: rgb(0, 0, 0); font-family: helvetica; font-size: 12px; font-style: normal; font-weight: 400; letter-spacing: normal; text-align: center; text-indent: 0px; text-transform: none; word-spacing: 0px; background-color: rgb(248, 249, 250);&quot;&gt;&lt;span style=&quot;color: rgb(0, 0, 0); font-family: helvetica; font-size: 12px; font-style: normal; font-weight: 400; letter-spacing: normal; text-align: center; text-indent: 0px; text-transform: none; word-spacing: 0px; background-color: rgb(248, 249, 250); display: inline; float: none;&quot;&gt;create&lt;/span&gt;&#xa;&#xa;" style="ellipse;whiteSpace=wrap;html=1;" vertex="1" parent="1">
          <mxGeometry x="940" y="640" width="70" height="50" as="geometry" />
        </mxCell>
        <mxCell id="XtGq3PdnK-xUfK9ltnUs-36" value="" style="endArrow=classic;html=1;entryX=0.5;entryY=0;entryDx=0;entryDy=0;" edge="1" parent="1" target="XtGq3PdnK-xUfK9ltnUs-25">
          <mxGeometry width="50" height="50" relative="1" as="geometry">
            <mxPoint x="250" y="554" as="sourcePoint" />
            <mxPoint x="570" y="620" as="targetPoint" />
            <Array as="points">
              <mxPoint x="250" y="580" />
              <mxPoint x="195" y="580" />
            </Array>
          </mxGeometry>
        </mxCell>
        <mxCell id="XtGq3PdnK-xUfK9ltnUs-37" value="" style="endArrow=classic;html=1;exitX=0.86;exitY=1.017;exitDx=0;exitDy=0;exitPerimeter=0;entryX=0.5;entryY=0;entryDx=0;entryDy=0;" edge="1" parent="1" source="XtGq3PdnK-xUfK9ltnUs-24" target="XtGq3PdnK-xUfK9ltnUs-29">
          <mxGeometry width="50" height="50" relative="1" as="geometry">
            <mxPoint x="520" y="670" as="sourcePoint" />
            <mxPoint x="570" y="620" as="targetPoint" />
            <Array as="points">
              <mxPoint x="450" y="560" />
            </Array>
          </mxGeometry>
        </mxCell>
        <mxCell id="XtGq3PdnK-xUfK9ltnUs-38" value="" style="endArrow=classic;html=1;exitX=0.66;exitY=1.017;exitDx=0;exitDy=0;exitPerimeter=0;entryX=0.5;entryY=0;entryDx=0;entryDy=0;" edge="1" parent="1" source="XtGq3PdnK-xUfK9ltnUs-24" target="XtGq3PdnK-xUfK9ltnUs-28">
          <mxGeometry width="50" height="50" relative="1" as="geometry">
            <mxPoint x="520" y="670" as="sourcePoint" />
            <mxPoint x="570" y="620" as="targetPoint" />
            <Array as="points">
              <mxPoint x="340" y="590" />
              <mxPoint x="380" y="590" />
            </Array>
          </mxGeometry>
        </mxCell>
        <mxCell id="XtGq3PdnK-xUfK9ltnUs-39" value="" style="endArrow=classic;html=1;exitX=0.567;exitY=1.003;exitDx=0;exitDy=0;exitPerimeter=0;entryX=0.5;entryY=0;entryDx=0;entryDy=0;" edge="1" parent="1" source="XtGq3PdnK-xUfK9ltnUs-24" target="XtGq3PdnK-xUfK9ltnUs-27">
          <mxGeometry width="50" height="50" relative="1" as="geometry">
            <mxPoint x="520" y="670" as="sourcePoint" />
            <mxPoint x="570" y="620" as="targetPoint" />
            <Array as="points">
              <mxPoint x="318" y="590" />
            </Array>
          </mxGeometry>
        </mxCell>
        <mxCell id="XtGq3PdnK-xUfK9ltnUs-40" value="" style="endArrow=classic;html=1;exitX=0.25;exitY=1;exitDx=0;exitDy=0;entryX=0.571;entryY=0;entryDx=0;entryDy=0;entryPerimeter=0;" edge="1" parent="1" source="XtGq3PdnK-xUfK9ltnUs-24" target="XtGq3PdnK-xUfK9ltnUs-26">
          <mxGeometry width="50" height="50" relative="1" as="geometry">
            <mxPoint x="520" y="670" as="sourcePoint" />
            <mxPoint x="280" y="610" as="targetPoint" />
          </mxGeometry>
        </mxCell>
        <mxCell id="XtGq3PdnK-xUfK9ltnUs-41" value="" style="endArrow=classic;html=1;exitX=0.167;exitY=1;exitDx=0;exitDy=0;exitPerimeter=0;entryX=0.726;entryY=-0.004;entryDx=0;entryDy=0;entryPerimeter=0;" edge="1" parent="1" source="XtGq3PdnK-xUfK9ltnUs-21" target="XtGq3PdnK-xUfK9ltnUs-33">
          <mxGeometry width="50" height="50" relative="1" as="geometry">
            <mxPoint x="660" y="740" as="sourcePoint" />
            <mxPoint x="710" y="690" as="targetPoint" />
          </mxGeometry>
        </mxCell>
        <mxCell id="XtGq3PdnK-xUfK9ltnUs-42" value="" style="endArrow=classic;html=1;exitX=0.357;exitY=1.017;exitDx=0;exitDy=0;exitPerimeter=0;entryX=1;entryY=0;entryDx=0;entryDy=0;" edge="1" parent="1" source="XtGq3PdnK-xUfK9ltnUs-21" target="XtGq3PdnK-xUfK9ltnUs-34">
          <mxGeometry width="50" height="50" relative="1" as="geometry">
            <mxPoint x="660" y="740" as="sourcePoint" />
            <mxPoint x="710" y="690" as="targetPoint" />
          </mxGeometry>
        </mxCell>
        <mxCell id="XtGq3PdnK-xUfK9ltnUs-43" value="" style="endArrow=classic;html=1;exitX=0.5;exitY=1;exitDx=0;exitDy=0;" edge="1" parent="1" source="XtGq3PdnK-xUfK9ltnUs-21" target="XtGq3PdnK-xUfK9ltnUs-35">
          <mxGeometry width="50" height="50" relative="1" as="geometry">
            <mxPoint x="660" y="740" as="sourcePoint" />
            <mxPoint x="710" y="690" as="targetPoint" />
          </mxGeometry>
        </mxCell>
        <mxCell id="XtGq3PdnK-xUfK9ltnUs-44" value="" style="endArrow=classic;html=1;exitX=0.75;exitY=1;exitDx=0;exitDy=0;entryX=0.634;entryY=-0.068;entryDx=0;entryDy=0;entryPerimeter=0;" edge="1" parent="1" source="XtGq3PdnK-xUfK9ltnUs-21" target="XtGq3PdnK-xUfK9ltnUs-31">
          <mxGeometry width="50" height="50" relative="1" as="geometry">
            <mxPoint x="660" y="740" as="sourcePoint" />
            <mxPoint x="710" y="690" as="targetPoint" />
          </mxGeometry>
        </mxCell>
        <mxCell id="XtGq3PdnK-xUfK9ltnUs-45" value="" style="endArrow=classic;html=1;exitX=0.923;exitY=1.043;exitDx=0;exitDy=0;exitPerimeter=0;" edge="1" parent="1" source="XtGq3PdnK-xUfK9ltnUs-21" target="XtGq3PdnK-xUfK9ltnUs-30">
          <mxGeometry width="50" height="50" relative="1" as="geometry">
            <mxPoint x="660" y="740" as="sourcePoint" />
            <mxPoint x="710" y="690" as="targetPoint" />
          </mxGeometry>
        </mxCell>
        <mxCell id="XtGq3PdnK-xUfK9ltnUs-46" value="database" style="shape=cylinder3;whiteSpace=wrap;html=1;boundedLbl=1;backgroundOutline=1;size=15;" vertex="1" parent="1">
          <mxGeometry x="630" y="730" width="60" height="80" as="geometry" />
        </mxCell>
        <mxCell id="XtGq3PdnK-xUfK9ltnUs-50" value="" style="endArrow=classic;startArrow=classic;html=1;exitX=1;exitY=0.5;exitDx=0;exitDy=0;exitPerimeter=0;entryX=0.326;entryY=1.052;entryDx=0;entryDy=0;entryPerimeter=0;" edge="1" parent="1" source="XtGq3PdnK-xUfK9ltnUs-46" target="XtGq3PdnK-xUfK9ltnUs-33">
          <mxGeometry width="50" height="50" relative="1" as="geometry">
            <mxPoint x="660" y="740" as="sourcePoint" />
            <mxPoint x="710" y="690" as="targetPoint" />
          </mxGeometry>
        </mxCell>
        <mxCell id="XtGq3PdnK-xUfK9ltnUs-51" value="" style="endArrow=classic;startArrow=classic;html=1;entryX=0.383;entryY=0.972;entryDx=0;entryDy=0;entryPerimeter=0;" edge="1" parent="1" target="XtGq3PdnK-xUfK9ltnUs-34">
          <mxGeometry width="50" height="50" relative="1" as="geometry">
            <mxPoint x="690" y="770" as="sourcePoint" />
            <mxPoint x="710" y="690" as="targetPoint" />
          </mxGeometry>
        </mxCell>
        <mxCell id="XtGq3PdnK-xUfK9ltnUs-52" value="" style="endArrow=classic;startArrow=classic;html=1;entryX=0.36;entryY=1.004;entryDx=0;entryDy=0;entryPerimeter=0;" edge="1" parent="1" target="XtGq3PdnK-xUfK9ltnUs-35">
          <mxGeometry width="50" height="50" relative="1" as="geometry">
            <mxPoint x="690" y="770" as="sourcePoint" />
            <mxPoint x="710" y="690" as="targetPoint" />
          </mxGeometry>
        </mxCell>
        <mxCell id="XtGq3PdnK-xUfK9ltnUs-53" value="" style="endArrow=classic;startArrow=classic;html=1;entryX=0.383;entryY=1.036;entryDx=0;entryDy=0;entryPerimeter=0;" edge="1" parent="1" target="XtGq3PdnK-xUfK9ltnUs-31">
          <mxGeometry width="50" height="50" relative="1" as="geometry">
            <mxPoint x="690" y="770" as="sourcePoint" />
            <mxPoint x="710" y="690" as="targetPoint" />
          </mxGeometry>
        </mxCell>
        <mxCell id="XtGq3PdnK-xUfK9ltnUs-54" value="" style="endArrow=classic;startArrow=classic;html=1;entryX=0.34;entryY=1.084;entryDx=0;entryDy=0;entryPerimeter=0;" edge="1" parent="1" target="XtGq3PdnK-xUfK9ltnUs-30">
          <mxGeometry width="50" height="50" relative="1" as="geometry">
            <mxPoint x="700" y="770" as="sourcePoint" />
            <mxPoint x="710" y="690" as="targetPoint" />
          </mxGeometry>
        </mxCell>
        <mxCell id="XtGq3PdnK-xUfK9ltnUs-55" value="" style="endArrow=classic;startArrow=classic;html=1;entryX=0.5;entryY=1;entryDx=0;entryDy=0;exitX=0;exitY=0.5;exitDx=0;exitDy=0;exitPerimeter=0;" edge="1" parent="1" source="XtGq3PdnK-xUfK9ltnUs-46" target="XtGq3PdnK-xUfK9ltnUs-29">
          <mxGeometry width="50" height="50" relative="1" as="geometry">
            <mxPoint x="660" y="740" as="sourcePoint" />
            <mxPoint x="710" y="690" as="targetPoint" />
          </mxGeometry>
        </mxCell>
        <mxCell id="XtGq3PdnK-xUfK9ltnUs-56" value="" style="endArrow=classic;startArrow=classic;html=1;exitX=0;exitY=0.5;exitDx=0;exitDy=0;exitPerimeter=0;entryX=0.5;entryY=1;entryDx=0;entryDy=0;" edge="1" parent="1" source="XtGq3PdnK-xUfK9ltnUs-46" target="XtGq3PdnK-xUfK9ltnUs-28">
          <mxGeometry width="50" height="50" relative="1" as="geometry">
            <mxPoint x="660" y="740" as="sourcePoint" />
            <mxPoint x="710" y="690" as="targetPoint" />
          </mxGeometry>
        </mxCell>
        <mxCell id="XtGq3PdnK-xUfK9ltnUs-57" value="" style="endArrow=classic;startArrow=classic;html=1;entryX=0.5;entryY=1;entryDx=0;entryDy=0;" edge="1" parent="1" target="XtGq3PdnK-xUfK9ltnUs-27">
          <mxGeometry width="50" height="50" relative="1" as="geometry">
            <mxPoint x="630" y="770" as="sourcePoint" />
            <mxPoint x="710" y="690" as="targetPoint" />
          </mxGeometry>
        </mxCell>
        <mxCell id="XtGq3PdnK-xUfK9ltnUs-58" value="" style="endArrow=classic;startArrow=classic;html=1;entryX=0.5;entryY=1;entryDx=0;entryDy=0;" edge="1" parent="1" target="XtGq3PdnK-xUfK9ltnUs-26">
          <mxGeometry width="50" height="50" relative="1" as="geometry">
            <mxPoint x="630" y="770" as="sourcePoint" />
            <mxPoint x="710" y="690" as="targetPoint" />
          </mxGeometry>
        </mxCell>
        <mxCell id="XtGq3PdnK-xUfK9ltnUs-59" value="" style="endArrow=classic;startArrow=classic;html=1;entryX=0.5;entryY=1;entryDx=0;entryDy=0;" edge="1" parent="1" target="XtGq3PdnK-xUfK9ltnUs-25">
          <mxGeometry width="50" height="50" relative="1" as="geometry">
            <mxPoint x="630" y="770" as="sourcePoint" />
            <mxPoint x="710" y="690" as="targetPoint" />
          </mxGeometry>
        </mxCell>
      </root>
    </mxGraphModel>
  </diagram>
</mxfile>
